<svg width="51" height="51" viewBox="0 0 51 51" fill="none" xmlns="http://www.w3.org/2000/svg">
<path d="M24.6611 0C11.7089 0 0.722361 10.6233 0.0356724 23.8977C-0.718822 38.4814 10.5933 50.55 24.6562 50.55C31.4738 50.55 37.635 47.7055 42.0941 43.1181C43.6339 41.5333 43.4505 38.9215 41.6703 37.6286L26.5585 26.6572C25.6412 25.9912 25.6601 24.5877 26.5946 23.9495L41.0708 14.0568C43.5525 12.3608 43.8878 9.1736 41.7378 7.0543C37.3415 2.71963 31.3814 0.0441773 24.8104 0.00247219C24.761 0.00120799 24.7104 2.55973e-06 24.6611 2.55973e-06L24.6611 0ZM36.9846 21.4837C34.942 21.4837 33.2861 23.1812 33.2861 25.275C33.2861 27.3688 34.942 29.0662 36.9846 29.0662C39.0272 29.0662 40.6831 27.3688 40.6831 25.275C40.6831 23.1812 39.0272 21.4837 36.9846 21.4837ZM46.8473 21.4837C44.8046 21.4837 43.1488 23.1812 43.1488 25.275C43.1488 27.3688 44.8046 29.0662 46.8473 29.0662C48.8899 29.0662 50.5458 27.3688 50.5458 25.275C50.5458 23.1812 48.8899 21.4837 46.8473 21.4837Z" fill="#004F88"/>
</svg>
