<svg width="169" height="77" viewBox="0 0 169 77" fill="none" xmlns="http://www.w3.org/2000/svg">
<path d="M16.0125 15.77C16.0125 16.05 15.9225 16.29 15.7425 16.49C15.5825 16.69 15.3925 16.84 15.1725 16.94C14.6525 16.58 14.0425 16.24 13.3425 15.92C12.6425 15.6 11.7325 15.44 10.6125 15.44C9.69246 15.44 8.84246 15.6 8.06246 15.92C7.28246 16.24 6.60246 16.71 6.02246 17.33C5.44246 17.95 4.98246 18.73 4.64246 19.67C4.32246 20.61 4.16246 21.69 4.16246 22.91C4.16246 24.15 4.32246 25.23 4.64246 26.15C4.96246 27.07 5.40246 27.84 5.96246 28.46C6.54246 29.08 7.23246 29.55 8.03246 29.87C8.83246 30.17 9.72246 30.32 10.7025 30.32C11.7425 30.32 12.6425 30.18 13.4025 29.9C14.1825 29.6 14.8325 29.25 15.3525 28.85C15.5525 28.93 15.7425 29.08 15.9225 29.3C16.1025 29.5 16.1925 29.74 16.1925 30.02C16.1925 30.44 15.9525 30.82 15.4725 31.16C15.0125 31.48 14.3825 31.76 13.5825 32C12.7825 32.26 11.7625 32.39 10.5225 32.39C9.26246 32.39 8.09246 32.19 7.01246 31.79C5.93246 31.39 4.99246 30.8 4.19246 30.02C3.41246 29.22 2.79246 28.23 2.33246 27.05C1.87246 25.87 1.64246 24.49 1.64246 22.91C1.64246 21.33 1.87246 19.95 2.33246 18.77C2.81246 17.57 3.45246 16.57 4.25246 15.77C5.05246 14.97 5.98246 14.37 7.04246 13.97C8.12246 13.57 9.25246 13.37 10.4325 13.37C11.2525 13.37 12.0025 13.44 12.6825 13.58C13.3825 13.72 13.9725 13.91 14.4525 14.15C14.9525 14.37 15.3325 14.63 15.5925 14.93C15.8725 15.21 16.0125 15.49 16.0125 15.77ZM22.3692 31.94C22.2692 31.98 22.1192 32.02 21.9192 32.06C21.7192 32.12 21.4992 32.15 21.2592 32.15C20.3992 32.15 19.9692 31.79 19.9692 31.07V12.56C20.0692 12.52 20.2192 12.48 20.4192 12.44C20.6392 12.38 20.8692 12.35 21.1092 12.35C21.9492 12.35 22.3692 12.71 22.3692 13.43V18.83C22.8492 18.55 23.4092 18.3 24.0492 18.08C24.7092 17.86 25.4492 17.75 26.2692 17.75C27.1092 17.75 27.8692 17.86 28.5492 18.08C29.2492 18.3 29.8492 18.64 30.3492 19.1C30.8492 19.54 31.2392 20.11 31.5192 20.81C31.7992 21.49 31.9392 22.29 31.9392 23.21V31.94C31.8392 31.98 31.6792 32.02 31.4592 32.06C31.2592 32.12 31.0492 32.15 30.8292 32.15C29.9692 32.15 29.5392 31.79 29.5392 31.07V23.27C29.5392 22.07 29.2092 21.18 28.5492 20.6C27.8892 20.02 27.0192 19.73 25.9392 19.73C25.2392 19.73 24.5792 19.86 23.9592 20.12C23.3592 20.36 22.8292 20.66 22.3692 21.02V31.94ZM41.3826 30.44C42.2226 30.44 42.9126 30.36 43.4526 30.2C44.0126 30.02 44.4126 29.85 44.6526 29.69V25.34L40.9326 25.73C39.8926 25.83 39.1226 26.07 38.6226 26.45C38.1226 26.81 37.8726 27.35 37.8726 28.07C37.8726 28.83 38.1626 29.42 38.7426 29.84C39.3226 30.24 40.2026 30.44 41.3826 30.44ZM41.3526 17.75C43.0926 17.75 44.4726 18.14 45.4926 18.92C46.5126 19.7 47.0226 20.93 47.0226 22.61V29.72C47.0226 30.16 46.9326 30.5 46.7526 30.74C46.5926 30.96 46.3426 31.17 46.0026 31.37C45.5226 31.65 44.8826 31.89 44.0826 32.09C43.3026 32.31 42.4026 32.42 41.3826 32.42C39.5026 32.42 38.0426 32.05 37.0026 31.31C35.9826 30.57 35.4726 29.5 35.4726 28.1C35.4726 26.78 35.9026 25.79 36.7626 25.13C37.6226 24.45 38.8326 24.03 40.3926 23.87L44.6526 23.45V22.61C44.6526 21.61 44.3526 20.88 43.7526 20.42C43.1526 19.96 42.3426 19.73 41.3226 19.73C40.4826 19.73 39.6926 19.85 38.9526 20.09C38.2126 20.33 37.5526 20.6 36.9726 20.9C36.8126 20.76 36.6626 20.6 36.5226 20.42C36.4026 20.24 36.3426 20.04 36.3426 19.82C36.3426 19.54 36.4126 19.31 36.5526 19.13C36.6926 18.95 36.9126 18.78 37.2126 18.62C37.7526 18.34 38.3726 18.13 39.0726 17.99C39.7726 17.83 40.5326 17.75 41.3526 17.75ZM43.6326 11.39C44.0726 11.41 44.4226 11.54 44.6826 11.78C44.9626 12 45.1026 12.25 45.1026 12.53C45.1026 12.81 45.0426 13.04 44.9226 13.22C44.8026 13.38 44.6026 13.59 44.3226 13.85L41.5926 16.52C41.1926 16.52 40.8726 16.42 40.6326 16.22C40.3926 16 40.2726 15.76 40.2726 15.5C40.2726 15.34 40.3226 15.19 40.4226 15.05C40.5226 14.91 40.6226 14.78 40.7226 14.66L43.6326 11.39ZM69.2592 29.72C69.2592 30.12 69.1692 30.43 68.9892 30.65C68.8292 30.87 68.5692 31.09 68.2092 31.31C67.8092 31.57 67.2392 31.81 66.4992 32.03C65.7592 32.27 64.9092 32.39 63.9492 32.39C62.8692 32.39 61.8792 32.25 60.9792 31.97C60.0792 31.69 59.2992 31.26 58.6392 30.68C57.9992 30.08 57.4992 29.33 57.1392 28.43C56.7992 27.51 56.6292 26.41 56.6292 25.13C56.6292 23.83 56.8092 22.72 57.1692 21.8C57.5292 20.86 58.0092 20.09 58.6092 19.49C59.2292 18.89 59.9492 18.45 60.7692 18.17C61.6092 17.89 62.4992 17.75 63.4392 17.75C64.0792 17.75 64.6992 17.83 65.2992 17.99C65.8992 18.15 66.4192 18.35 66.8592 18.59V12.56C66.9592 12.52 67.1092 12.48 67.3092 12.44C67.5292 12.38 67.7492 12.35 67.9692 12.35C68.8292 12.35 69.2592 12.71 69.2592 13.43V29.72ZM66.8592 20.75C66.4592 20.47 65.9992 20.23 65.4792 20.03C64.9592 19.83 64.3592 19.73 63.6792 19.73C63.0592 19.73 62.4692 19.83 61.9092 20.03C61.3692 20.21 60.8892 20.52 60.4692 20.96C60.0492 21.38 59.7092 21.94 59.4492 22.64C59.2092 23.34 59.0892 24.19 59.0892 25.19C59.0892 27.03 59.5292 28.36 60.4092 29.18C61.2892 30 62.4592 30.41 63.9192 30.41C64.6192 30.41 65.1892 30.34 65.6292 30.2C66.0892 30.04 66.4992 29.85 66.8592 29.63V20.75ZM75.5254 26.48C76.0654 29.1 77.7854 30.41 80.6854 30.41C81.5254 30.41 82.2854 30.27 82.9654 29.99C83.6454 29.71 84.1854 29.41 84.5854 29.09C85.0654 29.37 85.3054 29.75 85.3054 30.23C85.3054 30.51 85.1754 30.78 84.9154 31.04C84.6754 31.3 84.3354 31.53 83.8954 31.73C83.4754 31.93 82.9754 32.09 82.3954 32.21C81.8354 32.33 81.2254 32.39 80.5654 32.39C78.2454 32.39 76.4054 31.76 75.0454 30.5C73.7054 29.24 73.0354 27.4 73.0354 24.98C73.0354 23.84 73.1954 22.83 73.5154 21.95C73.8554 21.05 74.3154 20.29 74.8954 19.67C75.4954 19.05 76.2054 18.58 77.0254 18.26C77.8454 17.92 78.7354 17.75 79.6954 17.75C80.5954 17.75 81.4254 17.9 82.1854 18.2C82.9454 18.5 83.5954 18.93 84.1354 19.49C84.6954 20.03 85.1254 20.68 85.4254 21.44C85.7454 22.18 85.9054 23 85.9054 23.9C85.9054 24.34 85.8054 24.66 85.6054 24.86C85.4054 25.04 85.1254 25.15 84.7654 25.19L75.5254 26.48ZM79.6654 19.7C78.4454 19.7 77.4354 20.13 76.6354 20.99C75.8354 21.83 75.4154 23.04 75.3754 24.62L83.6254 23.48C83.5254 22.38 83.1354 21.48 82.4554 20.78C81.7954 20.06 80.8654 19.7 79.6654 19.7ZM97.8079 18.92H103.748C103.808 19.02 103.868 19.15 103.928 19.31C103.988 19.47 104.018 19.66 104.018 19.88C104.018 20.54 103.708 20.87 103.088 20.87H97.8379V31.94C97.7379 31.98 97.5879 32.02 97.3879 32.06C97.1879 32.12 96.9679 32.15 96.7279 32.15C95.8679 32.15 95.4379 31.79 95.4379 31.07V16.91C95.4379 15.15 95.9079 13.88 96.8479 13.1C97.8079 12.3 99.1379 11.9 100.838 11.9C101.978 11.9 102.868 12.05 103.508 12.35C104.168 12.65 104.498 13.02 104.498 13.46C104.498 13.9 104.328 14.27 103.988 14.57C103.628 14.37 103.178 14.21 102.638 14.09C102.098 13.95 101.578 13.88 101.078 13.88C99.8579 13.88 99.0079 14.13 98.5279 14.63C98.0479 15.13 97.8079 15.93 97.8079 17.03V18.92ZM108.588 31.94C108.488 31.98 108.338 32.02 108.138 32.06C107.938 32.12 107.718 32.15 107.478 32.15C106.618 32.15 106.188 31.79 106.188 31.07V20.9C106.188 20.44 106.268 20.08 106.428 19.82C106.608 19.54 106.898 19.27 107.298 19.01C107.818 18.67 108.518 18.38 109.398 18.14C110.298 17.88 111.308 17.75 112.428 17.75C114.028 17.75 114.828 18.15 114.828 18.95C114.828 19.15 114.798 19.34 114.738 19.52C114.678 19.68 114.598 19.82 114.498 19.94C114.298 19.9 114.038 19.86 113.718 19.82C113.398 19.78 113.078 19.76 112.758 19.76C111.838 19.76 111.028 19.86 110.328 20.06C109.628 20.24 109.048 20.46 108.588 20.72V31.94ZM122.447 30.44C123.287 30.44 123.977 30.36 124.517 30.2C125.077 30.02 125.477 29.85 125.717 29.69V25.34L121.997 25.73C120.957 25.83 120.187 26.07 119.687 26.45C119.187 26.81 118.937 27.35 118.937 28.07C118.937 28.83 119.227 29.42 119.807 29.84C120.387 30.24 121.267 30.44 122.447 30.44ZM122.417 17.75C124.157 17.75 125.537 18.14 126.557 18.92C127.577 19.7 128.087 20.93 128.087 22.61V29.72C128.087 30.16 127.997 30.5 127.817 30.74C127.657 30.96 127.407 31.17 127.067 31.37C126.587 31.65 125.947 31.89 125.147 32.09C124.367 32.31 123.467 32.42 122.447 32.42C120.567 32.42 119.107 32.05 118.067 31.31C117.047 30.57 116.537 29.5 116.537 28.1C116.537 26.78 116.967 25.79 117.827 25.13C118.687 24.45 119.897 24.03 121.457 23.87L125.717 23.45V22.61C125.717 21.61 125.417 20.88 124.817 20.42C124.217 19.96 123.407 19.73 122.387 19.73C121.547 19.73 120.757 19.85 120.017 20.09C119.277 20.33 118.617 20.6 118.037 20.9C117.877 20.76 117.727 20.6 117.587 20.42C117.467 20.24 117.407 20.04 117.407 19.82C117.407 19.54 117.477 19.31 117.617 19.13C117.757 18.95 117.977 18.78 118.277 18.62C118.817 18.34 119.437 18.13 120.137 17.99C120.837 17.83 121.597 17.75 122.417 17.75ZM135.108 31.94C135.008 31.98 134.858 32.02 134.658 32.06C134.458 32.12 134.238 32.15 133.998 32.15C133.138 32.15 132.708 31.79 132.708 31.07V12.56C132.808 12.52 132.958 12.48 133.158 12.44C133.378 12.38 133.598 12.35 133.818 12.35C134.678 12.35 135.108 12.71 135.108 13.43V31.94ZM151.701 29.72C151.701 30.12 151.611 30.43 151.431 30.65C151.271 30.87 151.011 31.09 150.651 31.31C150.251 31.57 149.681 31.81 148.941 32.03C148.201 32.27 147.351 32.39 146.391 32.39C145.311 32.39 144.321 32.25 143.421 31.97C142.521 31.69 141.741 31.26 141.081 30.68C140.441 30.08 139.941 29.33 139.581 28.43C139.241 27.51 139.071 26.41 139.071 25.13C139.071 23.83 139.251 22.72 139.611 21.8C139.971 20.86 140.451 20.09 141.051 19.49C141.671 18.89 142.391 18.45 143.211 18.17C144.051 17.89 144.941 17.75 145.881 17.75C146.521 17.75 147.141 17.83 147.741 17.99C148.341 18.15 148.861 18.35 149.301 18.59V12.56C149.401 12.52 149.551 12.48 149.751 12.44C149.971 12.38 150.191 12.35 150.411 12.35C151.271 12.35 151.701 12.71 151.701 13.43V29.72ZM149.301 20.75C148.901 20.47 148.441 20.23 147.921 20.03C147.401 19.83 146.801 19.73 146.121 19.73C145.501 19.73 144.911 19.83 144.351 20.03C143.811 20.21 143.331 20.52 142.911 20.96C142.491 21.38 142.151 21.94 141.891 22.64C141.651 23.34 141.531 24.19 141.531 25.19C141.531 27.03 141.971 28.36 142.851 29.18C143.731 30 144.901 30.41 146.361 30.41C147.061 30.41 147.631 30.34 148.071 30.2C148.531 30.04 148.941 29.85 149.301 29.63V20.75ZM161.207 30.44C162.047 30.44 162.737 30.36 163.277 30.2C163.837 30.02 164.237 29.85 164.477 29.69V25.34L160.757 25.73C159.717 25.83 158.947 26.07 158.447 26.45C157.947 26.81 157.697 27.35 157.697 28.07C157.697 28.83 157.987 29.42 158.567 29.84C159.147 30.24 160.027 30.44 161.207 30.44ZM161.177 17.75C162.917 17.75 164.297 18.14 165.317 18.92C166.337 19.7 166.847 20.93 166.847 22.61V29.72C166.847 30.16 166.757 30.5 166.577 30.74C166.417 30.96 166.167 31.17 165.827 31.37C165.347 31.65 164.707 31.89 163.907 32.09C163.127 32.31 162.227 32.42 161.207 32.42C159.327 32.42 157.867 32.05 156.827 31.31C155.807 30.57 155.297 29.5 155.297 28.1C155.297 26.78 155.727 25.79 156.587 25.13C157.447 24.45 158.657 24.03 160.217 23.87L164.477 23.45V22.61C164.477 21.61 164.177 20.88 163.577 20.42C162.977 19.96 162.167 19.73 161.147 19.73C160.307 19.73 159.517 19.85 158.777 20.09C158.037 20.33 157.377 20.6 156.797 20.9C156.637 20.76 156.487 20.6 156.347 20.42C156.227 20.24 156.167 20.04 156.167 19.82C156.167 19.54 156.237 19.31 156.377 19.13C156.517 18.95 156.737 18.78 157.037 18.62C157.577 18.34 158.197 18.13 158.897 17.99C159.597 17.83 160.357 17.75 161.177 17.75Z" fill="white"/>
<path d="M29.1059 66.72C29.1059 67.12 29.0159 67.43 28.8359 67.65C28.6759 67.87 28.4159 68.09 28.0559 68.31C27.6559 68.57 27.0859 68.81 26.3459 69.03C25.6059 69.27 24.7559 69.39 23.7959 69.39C22.7159 69.39 21.7259 69.25 20.8259 68.97C19.9259 68.69 19.1459 68.26 18.4859 67.68C17.8459 67.08 17.3459 66.33 16.9859 65.43C16.6459 64.51 16.4759 63.41 16.4759 62.13C16.4759 60.83 16.6559 59.72 17.0159 58.8C17.3759 57.86 17.8559 57.09 18.4559 56.49C19.0759 55.89 19.7959 55.45 20.6159 55.17C21.4559 54.89 22.3459 54.75 23.2859 54.75C23.9259 54.75 24.5459 54.83 25.1459 54.99C25.7459 55.15 26.2659 55.35 26.7059 55.59V49.56C26.8059 49.52 26.9559 49.48 27.1559 49.44C27.3759 49.38 27.5959 49.35 27.8159 49.35C28.6759 49.35 29.1059 49.71 29.1059 50.43V66.72ZM26.7059 57.75C26.3059 57.47 25.8459 57.23 25.3259 57.03C24.8059 56.83 24.2059 56.73 23.5259 56.73C22.9059 56.73 22.3159 56.83 21.7559 57.03C21.2159 57.21 20.7359 57.52 20.3159 57.96C19.8959 58.38 19.5559 58.94 19.2959 59.64C19.0559 60.34 18.9359 61.19 18.9359 62.19C18.9359 64.03 19.3759 65.36 20.2559 66.18C21.1359 67 22.3059 67.41 23.7659 67.41C24.4659 67.41 25.0359 67.34 25.4759 67.2C25.9359 67.04 26.3459 66.85 26.7059 66.63V57.75ZM46.5321 62.07C46.5321 63.19 46.3721 64.2 46.0521 65.1C45.7321 66 45.2721 66.77 44.6721 67.41C44.0921 68.05 43.3821 68.54 42.5421 68.88C41.7021 69.22 40.7621 69.39 39.7221 69.39C38.6821 69.39 37.7421 69.22 36.9021 68.88C36.0621 68.54 35.3421 68.05 34.7421 67.41C34.1421 66.77 33.6821 66 33.3621 65.1C33.0421 64.2 32.8821 63.19 32.8821 62.07C32.8821 60.95 33.0421 59.94 33.3621 59.04C33.7021 58.14 34.1721 57.37 34.7721 56.73C35.3721 56.09 36.0921 55.6 36.9321 55.26C37.7721 54.92 38.7021 54.75 39.7221 54.75C40.7421 54.75 41.6721 54.92 42.5121 55.26C43.3521 55.6 44.0621 56.09 44.6421 56.73C45.2421 57.37 45.7021 58.14 46.0221 59.04C46.3621 59.94 46.5321 60.95 46.5321 62.07ZM39.7221 56.73C38.3621 56.73 37.2921 57.2 36.5121 58.14C35.7321 59.08 35.3421 60.39 35.3421 62.07C35.3421 63.77 35.7221 65.09 36.4821 66.03C37.2621 66.95 38.3421 67.41 39.7221 67.41C41.1021 67.41 42.1721 66.94 42.9321 66C43.6921 65.06 44.0721 63.75 44.0721 62.07C44.0721 60.39 43.6821 59.08 42.9021 58.14C42.1421 57.2 41.0821 56.73 39.7221 56.73Z" fill="white"/>
<path d="M61.7503 51.428C61.5543 51.12 61.3723 50.7 61.2043 50.168C61.0363 49.636 60.9523 49.076 60.9523 48.488C60.9523 47.396 61.1903 46.612 61.6663 46.136C62.1703 45.66 62.8143 45.422 63.5983 45.422H81.9103C82.1063 45.73 82.2883 46.15 82.4563 46.682C82.6243 47.214 82.7083 47.774 82.7083 48.362C82.7083 49.454 82.4563 50.238 81.9523 50.714C81.4763 51.19 80.8463 51.428 80.0623 51.428H75.4003V70.832C75.0923 70.916 74.6023 71 73.9303 71.084C73.2863 71.168 72.6423 71.21 71.9983 71.21C71.3543 71.21 70.7803 71.154 70.2763 71.042C69.8003 70.958 69.3943 70.79 69.0583 70.538C68.7223 70.286 68.4703 69.936 68.3023 69.488C68.1343 69.04 68.0503 68.452 68.0503 67.724V51.428H61.7503ZM105.878 70.958C105.598 71.042 105.15 71.126 104.534 71.21C103.946 71.294 103.33 71.336 102.686 71.336C102.07 71.336 101.51 71.294 101.006 71.21C100.53 71.126 100.124 70.958 99.7882 70.706C99.4522 70.454 99.1862 70.118 98.9902 69.698C98.8222 69.25 98.7382 68.676 98.7382 67.976V58.652C98.7382 57.504 98.4442 56.706 97.8562 56.258C97.2962 55.782 96.5962 55.544 95.7562 55.544C95.1962 55.544 94.6642 55.614 94.1602 55.754C93.6562 55.894 93.2502 56.062 92.9422 56.258V70.958C92.6622 71.042 92.2142 71.126 91.5982 71.21C91.0102 71.294 90.3942 71.336 89.7502 71.336C89.1342 71.336 88.5742 71.294 88.0702 71.21C87.5942 71.126 87.1882 70.958 86.8522 70.706C86.5162 70.454 86.2502 70.118 86.0542 69.698C85.8862 69.25 85.8022 68.676 85.8022 67.976V43.616C86.1102 43.56 86.5582 43.49 87.1462 43.406C87.7622 43.294 88.3782 43.238 88.9942 43.238C89.6102 43.238 90.1562 43.28 90.6322 43.364C91.1362 43.448 91.5562 43.616 91.8922 43.868C92.2282 44.12 92.4802 44.47 92.6482 44.918C92.8442 45.338 92.9422 45.898 92.9422 46.598V50.714C93.3062 50.574 93.8522 50.42 94.5802 50.252C95.3362 50.056 96.1622 49.958 97.0582 49.958C99.8302 49.958 101.986 50.658 103.526 52.058C105.094 53.43 105.878 55.488 105.878 58.232V70.958ZM121.081 71.672C119.429 71.672 117.889 71.448 116.461 71C115.061 70.524 113.829 69.824 112.765 68.9C111.729 67.976 110.903 66.814 110.287 65.414C109.699 64.014 109.405 62.376 109.405 60.5C109.405 58.652 109.699 57.07 110.287 55.754C110.903 54.41 111.701 53.318 112.681 52.478C113.661 51.61 114.781 50.98 116.041 50.588C117.301 50.168 118.589 49.958 119.905 49.958C121.389 49.958 122.733 50.182 123.937 50.63C125.169 51.078 126.219 51.694 127.087 52.478C127.983 53.262 128.669 54.2 129.145 55.292C129.649 56.384 129.901 57.574 129.901 58.862C129.901 59.814 129.635 60.542 129.103 61.046C128.571 61.55 127.829 61.872 126.877 62.012L116.503 63.566C116.811 64.49 117.441 65.19 118.393 65.666C119.345 66.114 120.437 66.338 121.669 66.338C122.817 66.338 123.895 66.198 124.903 65.918C125.939 65.61 126.779 65.26 127.423 64.868C127.871 65.148 128.249 65.54 128.557 66.044C128.865 66.548 129.019 67.08 129.019 67.64C129.019 68.9 128.431 69.838 127.255 70.454C126.359 70.93 125.351 71.252 124.231 71.42C123.111 71.588 122.061 71.672 121.081 71.672ZM119.905 55.166C119.233 55.166 118.645 55.278 118.141 55.502C117.665 55.726 117.273 56.02 116.965 56.384C116.657 56.72 116.419 57.112 116.251 57.56C116.111 57.98 116.027 58.414 115.999 58.862L123.181 57.686C123.097 57.126 122.789 56.566 122.257 56.006C121.725 55.446 120.941 55.166 119.905 55.166ZM120.661 39.752C122.117 39.752 123.167 40.032 123.811 40.592C124.483 41.152 124.819 41.824 124.819 42.608C124.819 43.336 124.623 43.952 124.231 44.456C123.839 44.932 123.195 45.408 122.299 45.884L116.881 48.74C116.041 48.656 115.327 48.32 114.739 47.732C114.151 47.144 113.857 46.514 113.857 45.842C113.857 45.506 113.941 45.17 114.109 44.834C114.277 44.498 114.557 44.19 114.949 43.91L120.661 39.752ZM154.504 60.794C154.504 62.53 154.238 64.084 153.706 65.456C153.174 66.8 152.418 67.934 151.438 68.858C150.486 69.782 149.338 70.482 147.994 70.958C146.65 71.434 145.152 71.672 143.5 71.672C141.848 71.672 140.35 71.42 139.006 70.916C137.662 70.412 136.5 69.698 135.52 68.774C134.568 67.822 133.826 66.674 133.294 65.33C132.762 63.986 132.496 62.474 132.496 60.794C132.496 59.142 132.762 57.644 133.294 56.3C133.826 54.956 134.568 53.822 135.52 52.898C136.5 51.946 137.662 51.218 139.006 50.714C140.35 50.21 141.848 49.958 143.5 49.958C145.152 49.958 146.65 50.224 147.994 50.756C149.338 51.26 150.486 51.988 151.438 52.94C152.418 53.864 153.174 54.998 153.706 56.342C154.238 57.686 154.504 59.17 154.504 60.794ZM139.804 60.794C139.804 62.502 140.126 63.818 140.77 64.742C141.442 65.638 142.366 66.086 143.542 66.086C144.718 66.086 145.614 65.624 146.23 64.7C146.874 63.776 147.196 62.474 147.196 60.794C147.196 59.114 146.874 57.826 146.23 56.93C145.586 56.006 144.676 55.544 143.5 55.544C142.324 55.544 141.414 56.006 140.77 56.93C140.126 57.826 139.804 59.114 139.804 60.794Z" fill="#004E87"/>
</svg>
